<svg xmlns="http://www.w3.org/2000/svg" viewBox="0 0 950 518" role="img" aria-label="Rank of each model by the judges versus chrF, BLEU and embedding cosine on set A" font-family="system-ui, sans-serif"><rect width="100%" height="100%" fill="#fcfcfb"/><text x="190" y="36" font-size="12" font-weight="600" fill="#0b0b0b" text-anchor="middle">Judges (MQM)</text><text x="380" y="36" font-size="12" font-weight="600" fill="#0b0b0b" text-anchor="middle">chrF</text><text x="570" y="36" font-size="12" font-weight="600" fill="#0b0b0b" text-anchor="middle">BLEU</text><text x="760" y="36" font-size="12" font-weight="600" fill="#0b0b0b" text-anchor="middle">Cosine to reference</text><polyline points="190,132 380,228 570,228 760,156" fill="none" stroke="#2a78d6" stroke-width="2" opacity="0.75"/><circle cx="190" cy="132" r="4" fill="#2a78d6"/><circle cx="380" cy="228" r="4" fill="#2a78d6"/><circle cx="570" cy="228" r="4" fill="#2a78d6"/><circle cx="760" cy="156" r="4" fill="#2a78d6"/><text x="180" y="136" font-size="11" fill="#0b0b0b" text-anchor="end">Claude Opus 5.5</text><text x="770" y="160" font-size="11" fill="#0b0b0b">Claude Opus 5.5</text><polyline points="190,252 380,180 570,180 760,180" fill="none" stroke="#2a78d6" stroke-width="2" opacity="0.75"/><circle cx="190" cy="252" r="4" fill="#2a78d6"/><circle cx="380" cy="180" r="4" fill="#2a78d6"/><circle cx="570" cy="180" r="4" fill="#2a78d6"/><circle cx="760" cy="180" r="4" fill="#2a78d6"/><text x="180" y="256" font-size="11" fill="#0b0b0b" text-anchor="end">Claude Sonnet 5.5</text><text x="770" y="184" font-size="11" fill="#0b0b0b">Claude Sonnet 5.5</text><polyline points="190,300 380,204 570,252 760,204" fill="none" stroke="#1baf7a" stroke-width="2" opacity="0.75"/><circle cx="190" cy="300" r="4" fill="#1baf7a"/><circle cx="380" cy="204" r="4" fill="#1baf7a"/><circle cx="570" cy="252" r="4" fill="#1baf7a"/><circle cx="760" cy="204" r="4" fill="#1baf7a"/><text x="180" y="304" font-size="11" fill="#0b0b0b" text-anchor="end">HY: GPT-5.4</text><text x="770" y="208" font-size="11" fill="#0b0b0b">HY: GPT-5.4</text><polyline points="190,84 380,348 570,324 760,300" fill="none" stroke="#1baf7a" stroke-width="2" opacity="0.75"/><circle cx="190" cy="84" r="4" fill="#1baf7a"/><circle cx="380" cy="348" r="4" fill="#1baf7a"/><circle cx="570" cy="324" r="4" fill="#1baf7a"/><circle cx="760" cy="300" r="4" fill="#1baf7a"/><text x="180" y="88" font-size="11" fill="#0b0b0b" text-anchor="end">HY: GPT-5.6-sol</text><text x="770" y="304" font-size="11" fill="#0b0b0b">HY: GPT-5.6-sol</text><polyline points="190,372 380,60 570,60 760,60" fill="none" stroke="#1baf7a" stroke-width="2" opacity="0.75"/><circle cx="190" cy="372" r="4" fill="#1baf7a"/><circle cx="380" cy="60" r="4" fill="#1baf7a"/><circle cx="570" cy="60" r="4" fill="#1baf7a"/><circle cx="760" cy="60" r="4" fill="#1baf7a"/><text x="180" y="376" font-size="11" fill="#0b0b0b" text-anchor="end">HY: Gemini-2.5-Flash</text><text x="770" y="64" font-size="11" fill="#0b0b0b">HY: Gemini-2.5-Flash</text><polyline points="190,324 380,84 570,108 760,84" fill="none" stroke="#1baf7a" stroke-width="2" opacity="0.75"/><circle cx="190" cy="324" r="4" fill="#1baf7a"/><circle cx="380" cy="84" r="4" fill="#1baf7a"/><circle cx="570" cy="108" r="4" fill="#1baf7a"/><circle cx="760" cy="84" r="4" fill="#1baf7a"/><text x="180" y="328" font-size="11" fill="#0b0b0b" text-anchor="end">HY: Gemini-3.5-Flash-lite</text><text x="770" y="88" font-size="11" fill="#0b0b0b">HY: Gemini-3.5-Flash-lite</text><polyline points="190,444 380,444 570,444 760,444" fill="none" stroke="#1baf7a" stroke-width="2" opacity="0.75"/><circle cx="190" cy="444" r="4" fill="#1baf7a"/><circle cx="380" cy="444" r="4" fill="#1baf7a"/><circle cx="570" cy="444" r="4" fill="#1baf7a"/><circle cx="760" cy="444" r="4" fill="#1baf7a"/><text x="180" y="448" font-size="11" fill="#0b0b0b" text-anchor="end">HY: Opus</text><text x="770" y="448" font-size="11" fill="#0b0b0b">HY: Opus</text><polyline points="190,420 380,372 570,348 760,348" fill="none" stroke="#1baf7a" stroke-width="2" opacity="0.75"/><circle cx="190" cy="420" r="4" fill="#1baf7a"/><circle cx="380" cy="372" r="4" fill="#1baf7a"/><circle cx="570" cy="348" r="4" fill="#1baf7a"/><circle cx="760" cy="348" r="4" fill="#1baf7a"/><text x="180" y="424" font-size="11" fill="#0b0b0b" text-anchor="end">HY: OpusBig</text><text x="770" y="352" font-size="11" fill="#0b0b0b">HY: OpusBig</text><polyline points="190,204 380,156 570,132 760,228" fill="none" stroke="#2a78d6" stroke-width="2" opacity="0.75"/><circle cx="190" cy="204" r="4" fill="#2a78d6"/><circle cx="380" cy="156" r="4" fill="#2a78d6"/><circle cx="570" cy="132" r="4" fill="#2a78d6"/><circle cx="760" cy="228" r="4" fill="#2a78d6"/><text x="180" y="208" font-size="11" fill="#0b0b0b" text-anchor="end">GPT-4.1</text><text x="770" y="232" font-size="11" fill="#0b0b0b">GPT-4.1</text><polyline points="190,348 380,300 570,84 760,108" fill="none" stroke="#2a78d6" stroke-width="2" opacity="0.75"/><circle cx="190" cy="348" r="4" fill="#2a78d6"/><circle cx="380" cy="300" r="4" fill="#2a78d6"/><circle cx="570" cy="84" r="4" fill="#2a78d6"/><circle cx="760" cy="108" r="4" fill="#2a78d6"/><text x="180" y="352" font-size="11" fill="#0b0b0b" text-anchor="end">GPT-4o</text><text x="770" y="112" font-size="11" fill="#0b0b0b">GPT-4o</text><polyline points="190,396 380,252 570,276 760,252" fill="none" stroke="#2a78d6" stroke-width="2" opacity="0.75"/><circle cx="190" cy="396" r="4" fill="#2a78d6"/><circle cx="380" cy="252" r="4" fill="#2a78d6"/><circle cx="570" cy="276" r="4" fill="#2a78d6"/><circle cx="760" cy="252" r="4" fill="#2a78d6"/><text x="180" y="400" font-size="11" fill="#0b0b0b" text-anchor="end">GPT-5.4 mini</text><text x="770" y="256" font-size="11" fill="#0b0b0b">GPT-5.4 mini</text><polyline points="190,180 380,276 570,300 760,324" fill="none" stroke="#2a78d6" stroke-width="2" opacity="0.75"/><circle cx="190" cy="180" r="4" fill="#2a78d6"/><circle cx="380" cy="276" r="4" fill="#2a78d6"/><circle cx="570" cy="300" r="4" fill="#2a78d6"/><circle cx="760" cy="324" r="4" fill="#2a78d6"/><text x="180" y="184" font-size="11" fill="#0b0b0b" text-anchor="end">GPT-5.5</text><text x="770" y="328" font-size="11" fill="#0b0b0b">GPT-5.5</text><polyline points="190,60 380,324 570,372 760,372" fill="none" stroke="#2a78d6" stroke-width="2" opacity="0.75"/><circle cx="190" cy="60" r="4" fill="#2a78d6"/><circle cx="380" cy="324" r="4" fill="#2a78d6"/><circle cx="570" cy="372" r="4" fill="#2a78d6"/><circle cx="760" cy="372" r="4" fill="#2a78d6"/><text x="180" y="64" font-size="11" fill="#0b0b0b" text-anchor="end">GPT-6 Astra</text><text x="770" y="376" font-size="11" fill="#0b0b0b">GPT-6 Astra</text><polyline points="190,156 380,396 570,420 760,396" fill="none" stroke="#2a78d6" stroke-width="2" opacity="0.75"/><circle cx="190" cy="156" r="4" fill="#2a78d6"/><circle cx="380" cy="396" r="4" fill="#2a78d6"/><circle cx="570" cy="420" r="4" fill="#2a78d6"/><circle cx="760" cy="396" r="4" fill="#2a78d6"/><text x="180" y="160" font-size="11" fill="#0b0b0b" text-anchor="end">GPT-6 Luna</text><text x="770" y="400" font-size="11" fill="#0b0b0b">GPT-6 Luna</text><polyline points="190,108 380,420 570,396 760,420" fill="none" stroke="#2a78d6" stroke-width="2" opacity="0.75"/><circle cx="190" cy="108" r="4" fill="#2a78d6"/><circle cx="380" cy="420" r="4" fill="#2a78d6"/><circle cx="570" cy="396" r="4" fill="#2a78d6"/><circle cx="760" cy="420" r="4" fill="#2a78d6"/><text x="180" y="112" font-size="11" fill="#0b0b0b" text-anchor="end">GPT-6 Sol</text><text x="770" y="424" font-size="11" fill="#0b0b0b">GPT-6 Sol</text><polyline points="190,228 380,132 570,204 760,276" fill="none" stroke="#2a78d6" stroke-width="2" opacity="0.75"/><circle cx="190" cy="228" r="4" fill="#2a78d6"/><circle cx="380" cy="132" r="4" fill="#2a78d6"/><circle cx="570" cy="204" r="4" fill="#2a78d6"/><circle cx="760" cy="276" r="4" fill="#2a78d6"/><text x="180" y="232" font-size="11" fill="#0b0b0b" text-anchor="end">Gemini 3.1 Pro</text><text x="770" y="280" font-size="11" fill="#0b0b0b">Gemini 3.1 Pro</text><polyline points="190,276 380,108 570,156 760,132" fill="none" stroke="#2a78d6" stroke-width="2" opacity="0.75"/><circle cx="190" cy="276" r="4" fill="#2a78d6"/><circle cx="380" cy="108" r="4" fill="#2a78d6"/><circle cx="570" cy="156" r="4" fill="#2a78d6"/><circle cx="760" cy="132" r="4" fill="#2a78d6"/><text x="180" y="280" font-size="11" fill="#0b0b0b" text-anchor="end">Gemini 3.5 Flash</text><text x="770" y="136" font-size="11" fill="#0b0b0b">Gemini 3.5 Flash</text><text x="16" y="504" font-size="11" fill="#52514e">Set A, rank 1 at the top. Lines that cross show the metrics disagreeing about which model is better.</text></svg>
