<svg xmlns="http://www.w3.org/2000/svg" viewBox="0 0 900 622" role="img" aria-label="MQM error points per 100 source words on sets A and B; GPT-6 Astra is lowest" font-family="system-ui, sans-serif"><rect width="100%" height="100%" fill="#fcfcfb"/><text x="24" y="38" font-size="22" font-weight="700" fill="#0b0b0b">Lowest judged translation error rate: GPT-6 Astra</text><text x="24" y="62" font-size="13" fill="#52514e">MQM points per 100 Finnish words; 20 clips; eligible judges on one scale. Lower is better.</text><line x1="250.0" y1="88" x2="250.0" y2="538" stroke="#e4e3df"/><text x="250.0" y="82" font-size="11" fill="#52514e" text-anchor="middle">0</text><line x1="343.3333333333333" y1="88" x2="343.3333333333333" y2="538" stroke="#e4e3df"/><text x="343.3333333333333" y="82" font-size="11" fill="#52514e" text-anchor="middle">2</text><line x1="436.66666666666663" y1="88" x2="436.66666666666663" y2="538" stroke="#e4e3df"/><text x="436.66666666666663" y="82" font-size="11" fill="#52514e" text-anchor="middle">4</text><line x1="530.0" y1="88" x2="530.0" y2="538" stroke="#e4e3df"/><text x="530.0" y="82" font-size="11" fill="#52514e" text-anchor="middle">6</text><line x1="623.3333333333333" y1="88" x2="623.3333333333333" y2="538" stroke="#e4e3df"/><text x="623.3333333333333" y="82" font-size="11" fill="#52514e" text-anchor="middle">8</text><line x1="716.6666666666666" y1="88" x2="716.6666666666666" y2="538" stroke="#e4e3df"/><text x="716.6666666666666" y="82" font-size="11" fill="#52514e" text-anchor="middle">10</text><line x1="810.0" y1="88" x2="810.0" y2="538" stroke="#e4e3df"/><text x="810.0" y="82" font-size="11" fill="#52514e" text-anchor="middle">12</text><rect x="12" y="93" width="876" height="34" rx="6" fill="#eaf2fc"/><text x="238" y="116" font-size="14" font-weight="700" fill="#0b0b0b" text-anchor="end">GPT-6 Astra</text><rect x="250" y="99" width="16.333333333333332" height="11" rx="2" fill="#2a78d6"/><text x="278.3333333333333" y="109" font-size="11" fill="#52514e">0.3</text><rect x="250" y="112" width="27.999999999999996" height="11" rx="2" fill="#9cc3f0"/><text x="290.0" y="122" font-size="11" fill="#52514e">0.6</text><text x="238" y="150" font-size="14" font-weight="400" fill="#0b0b0b" text-anchor="end">GPT-6 Sol</text><rect x="250" y="133" width="35.0" height="11" rx="2" fill="#2a78d6"/><text x="297.0" y="143" font-size="11" fill="#52514e">0.8</text><rect x="250" y="146" width="65.33333333333333" height="11" rx="2" fill="#9cc3f0"/><text x="327.3333333333333" y="156" font-size="11" fill="#52514e">1.4</text><text x="238" y="184" font-size="14" font-weight="400" fill="#0b0b0b" text-anchor="end">Claude Opus 5.5</text><rect x="250" y="167" width="56.46666666666666" height="11" rx="2" fill="#2a78d6"/><text x="318.46666666666664" y="177" font-size="11" fill="#52514e">1.2</text><rect x="250" y="180" width="102.19999999999999" height="11" rx="2" fill="#9cc3f0"/><text x="364.2" y="190" font-size="11" fill="#52514e">2.2</text><text x="238" y="218" font-size="14" font-weight="400" fill="#0b0b0b" text-anchor="end">GPT-6 Luna</text><rect x="250" y="201" width="70.93333333333334" height="11" rx="2" fill="#2a78d6"/><text x="332.93333333333334" y="211" font-size="11" fill="#52514e">1.5</text><rect x="250" y="214" width="86.8" height="11" rx="2" fill="#9cc3f0"/><text x="348.8" y="224" font-size="11" fill="#52514e">1.9</text><text x="238" y="252" font-size="14" font-weight="400" fill="#0b0b0b" text-anchor="end">GPT-5.5</text><rect x="250" y="235" width="93.33333333333333" height="11" rx="2" fill="#2a78d6"/><text x="355.3333333333333" y="245" font-size="11" fill="#52514e">2.0</text><rect x="250" y="248" width="133.46666666666664" height="11" rx="2" fill="#9cc3f0"/><text x="395.46666666666664" y="258" font-size="11" fill="#52514e">2.9</text><text x="238" y="286" font-size="14" font-weight="400" fill="#0b0b0b" text-anchor="end">GPT-4.1</text><rect x="250" y="269" width="103.60000000000001" height="11" rx="2" fill="#2a78d6"/><text x="365.6" y="279" font-size="11" fill="#52514e">2.2</text><rect x="250" y="282" width="143.26666666666665" height="11" rx="2" fill="#9cc3f0"/><text x="405.26666666666665" y="292" font-size="11" fill="#52514e">3.1</text><text x="238" y="320" font-size="14" font-weight="400" fill="#0b0b0b" text-anchor="end">Gemini 3.1 Pro</text><rect x="250" y="303" width="104.53333333333333" height="11" rx="2" fill="#2a78d6"/><text x="366.5333333333333" y="313" font-size="11" fill="#52514e">2.2</text><rect x="250" y="316" width="97.53333333333332" height="11" rx="2" fill="#9cc3f0"/><text x="359.5333333333333" y="326" font-size="11" fill="#52514e">2.1</text><text x="238" y="354" font-size="14" font-weight="400" fill="#0b0b0b" text-anchor="end">Claude Sonnet 5.5</text><rect x="250" y="337" width="130.2" height="11" rx="2" fill="#2a78d6"/><text x="392.2" y="347" font-size="11" fill="#52514e">2.8</text><rect x="250" y="350" width="179.2" height="11" rx="2" fill="#9cc3f0"/><text x="441.2" y="360" font-size="11" fill="#52514e">3.8</text><text x="238" y="388" font-size="14" font-weight="400" fill="#0b0b0b" text-anchor="end">Gemini 3.5 Flash</text><rect x="250" y="371" width="139.06666666666666" height="11" rx="2" fill="#2a78d6"/><text x="401.06666666666666" y="381" font-size="11" fill="#52514e">3.0</text><rect x="250" y="384" width="99.86666666666667" height="11" rx="2" fill="#9cc3f0"/><text x="361.8666666666667" y="394" font-size="11" fill="#52514e">2.1</text><text x="238" y="422" font-size="14" font-weight="400" fill="#0b0b0b" text-anchor="end">GPT-4o</text><rect x="250" y="405" width="207.66666666666666" height="11" rx="2" fill="#2a78d6"/><text x="469.66666666666663" y="415" font-size="11" fill="#52514e">4.5</text><rect x="250" y="418" width="346.7333333333333" height="11" rx="2" fill="#9cc3f0"/><text x="608.7333333333333" y="428" font-size="11" fill="#52514e">7.4</text><text x="238" y="456" font-size="14" font-weight="400" fill="#0b0b0b" text-anchor="end">GPT-5.4 mini</text><rect x="250" y="439" width="223.53333333333333" height="11" rx="2" fill="#2a78d6"/><text x="485.5333333333333" y="449" font-size="11" fill="#52514e">4.8</text><rect x="250" y="452" width="244.53333333333333" height="11" rx="2" fill="#9cc3f0"/><text x="506.5333333333333" y="462" font-size="11" fill="#52514e">5.2</text><text x="238" y="490" font-size="14" font-weight="400" fill="#0b0b0b" text-anchor="end">HY reference text</text><rect x="250" y="473" width="370.53333333333336" height="11" rx="2" fill="#8a8985"/><text x="632.5333333333333" y="483" font-size="11" fill="#52514e">7.9</text><rect x="250" y="486" width="560.0" height="11" rx="2" fill="#c9c8c4"/><path d="M802.0 485 L816.0 491.5 L802.0 498 Z" fill="#c9c8c4"/><text x="822.0" y="496" font-size="11" fill="#52514e">15.2</text><text x="238" y="524" font-size="14" font-weight="400" fill="#0b0b0b" text-anchor="end">Helsinki-NLP OpusBig</text><rect x="250" y="507" width="560.0" height="11" rx="2" fill="#eb6834"/><path d="M802.0 506 L816.0 512.5 L802.0 519 Z" fill="#eb6834"/><text x="822.0" y="517" font-size="11" fill="#52514e">23.5</text><rect x="250" y="520" width="560.0" height="11" rx="2" fill="#f3b59c"/><path d="M802.0 519 L816.0 525.5 L802.0 532 Z" fill="#f3b59c"/><text x="822.0" y="530" font-size="11" fill="#52514e">26.5</text><rect x="250" y="568" width="14" height="10" rx="2" fill="#2a78d6"/><text x="272" y="577" font-size="12" fill="#52514e">Set A: 10 historical clips (the ranking)</text><rect x="250" y="588" width="14" height="10" rx="2" fill="#9cc3f0"/><text x="272" y="597" font-size="12" fill="#52514e">Set B: 10 newer clips (replication)</text></svg>
